<svg height="474pt" viewBox="-47 0 474 474" width="474pt" xmlns="http://www.w3.org/2000/svg"><path d="m.0820312 421.550781c.0195308 28.894531 23.3906248 52.339844 52.2890628 52.449219h295.929687c4.417969 0 7.699219-3.898438 7.699219-8.320312v-80.679688h15.921875c2.121094.027344 4.160156-.792969 5.675781-2.273438 1.515625-1.484374 2.378906-3.507812 2.402344-5.625v-368.78125c-.011719-4.496093-3.582031-8.175781-8.078125-8.320312h-319.554687c-28.832032 0-52.367188 23.777344-52.367188 52.609375v366.960937c0 .179688.046875.441407.0585938.617188-.0117188.425781.0234374.933594.0234374 1.363281zm339.9179688 36.449219h-287.628906c-20.160156 0-36.5-16.339844-36.5-36.5s16.339844-36.5 36.5-36.5h287.628906zm24-89h-274v-353h274zm-348-316.390625c0-20.007813 16.355469-36.609375 36.367188-36.609375h21.632812v353h-21.628906c-13.597656-.054688-26.664063 5.257812-36.371094 14.777344zm0 0"/><path d="m106.246094 218.386719c0 24.671875 21.363281 44.742187 47.625 44.742187 26.261718 0 47.628906-20.070312 47.628906-44.742187-.007812-3.058594-1.839844-5.820313-4.652344-7.015625l-30.683594-62.371094h52.835938v122h-51.792969c-4.46875.011719-8.113281 3.589844-8.207031 8.058594v19.203125c.058594 2.113281.957031 4.121093 2.496094 5.574219 1.542968 1.449218 3.597656 2.230468 5.710937 2.164062h119.582031c2.117188.066406 4.171876-.714844 5.714844-2.167969 1.539063-1.449219 2.4375-3.457031 2.496094-5.574219v-19.199218c-.09375-4.46875-3.738281-8.046875-8.210938-8.058594h-51.789062v-122h52.835938l-30.679688 62.371094c-2.824219 1.25-4.648438 4.046875-4.652344 7.136718 0 24.671876 21.363282 44.683594 47.625 44.683594 26.261719 0 47.625-20.101562 47.625-44.777344-.007812-3.058593-1.835937-5.824218-4.652344-7.027343l-30.679687-62.386719h8.789063c4.417968 0 8-3.582031 8-8s-3.582032-8-8-8h-86.210938v-9.753906c11.710938-3.839844 19.59375-14.8125 19.492188-27.136719 0-15.644531-12.332032-28.367187-27.492188-28.367187s-27.492188 12.722656-27.492188 28.367187c-.101562 12.324219 7.78125 23.296875 19.492188 27.136719v9.753906h-86.210938c-4.417968 0-8 3.582031-8 8s3.582032 8 8 8h8.789063l-30.679687 62.371094c-2.8125 1.195312-4.644532 3.957031-4.652344 7.015625zm172.753906 71.613281h-104v-3h104zm21.128906-130.59375 24.792969 50.59375h-49.582031zm0 87.335938c-14.382812 0-26.554687-8.742188-30.378906-20.742188h60.757812c-3.820312 12-15.992187 20.742188-30.378906 20.742188zm-84.621094-150.632813c0-6.820313 5.15625-12.367187 11.492188-12.367187s11.492188 5.546874 11.492188 12.367187c0 6.816406-5.15625 12.367187-11.492188 12.367187s-11.492188-5.546874-11.492188-12.367187zm-61.636718 150.632813c-14.386719 0-26.558594-8.742188-30.378906-20.742188h60.757812c-3.824219 12-15.996094 20.742188-30.378906 20.742188zm-24.792969-36.742188 24.792969-50.59375 24.789062 50.59375zm0 0"/></svg>