<svg height="496pt" viewBox="-48 0 496 496" width="496pt" xmlns="http://www.w3.org/2000/svg"><path d="m76.441406 0-76.441406 84.929688v411.070312h400v-496zm-4.441406 28.847656v51.152344h-46.039062zm312 451.152344h-368v-384h72v-80h296zm0 0"/><path d="m256 32h112v16h-112zm0 0"/><path d="m192 64h176v16h-176zm0 0"/><path d="m336 112h-104.207031c-7.3125-9.65625-18.785157-16-31.792969-16s-24.488281 6.34375-31.792969 16h-104.207031c-8.824219 0-16 7.175781-16 16v16c0 8.824219 7.175781 16 16 16h21.246094l-19.199219 64h-18.046875v8c0 22.054688 17.945312 40 40 40h32c22.054688 0 40-17.945312 40-40v-8h-18.046875l-19.199219-64h45.445313c2.234375 2.953125 4.847656 5.558594 7.792969 7.792969v216.207031h-8c-22.054688 0-40 17.945312-40 40v8h144v-8c0-22.054688-17.945313-40-40-40h-8v-216.207031c2.953124-2.234375 5.558593-4.847657 7.792968-7.792969h45.445313l-19.199219 64h-18.03125v8c0 22.054688 17.945312 40 40 40h32c22.054688 0 40-17.945312 40-40v-8h-18.046875l-19.199219-64h21.246094c8.824219 0 16-7.175781 16-16v-16c0-8.824219-7.175781-16-16-16zm-216 144h-32c-10.433594 0-19.328125-6.6875-22.632812-16h77.257812c-3.296875 9.3125-12.191406 16-22.625 16zm5.246094-32h-42.492188l19.199219-64h4.09375zm-61.246094-80v-16h96.808594c-.527344 2.585938-.808594 5.265625-.808594 8s.28125 5.414062.808594 8zm190.632812 272h-109.257812c3.304688-9.3125 12.199219-16 22.632812-16h64c10.425782 0 19.320313 6.6875 22.625 16zm-46.632812-32h-16v-208.808594c2.585938.527344 5.265625.808594 8 .808594s5.414062-.28125 8-.808594zm-8-224c-13.230469 0-24-10.769531-24-24s10.769531-24 24-24 24 10.769531 24 24-10.769531 24-24 24zm112 96h-32c-10.433594 0-19.328125-6.6875-22.632812-16h77.257812c-3.296875 9.3125-12.191406 16-22.625 16zm5.246094-32h-42.492188l19.199219-64h4.09375zm18.753906-80h-96.808594c.527344-2.585938.808594-5.265625.808594-8s-.28125-5.414062-.808594-8h96.808594zm0 0"/></svg>