<svg height="400pt" viewBox="-49 0 400 400" width="400pt" xmlns="http://www.w3.org/2000/svg"><path d="m302.800781 107.898438v.203124h-68.101562c-22.09375.003907-40.003907-17.90625-40-40v-67.902343h.199219zm0 0" fill="#f8ec7d"/><path d="m302.800781 109.699219v250.300781c.003907 22.09375-17.90625 40.007812-40 40h-222.800781c-22.09375.007812-40.0078125-17.90625-40-40v-320c-.0078125-22.09375 17.90625-40.0078125 40-40h152.601562l2 .199219v67.902343c-.007812 22.09375 17.90625 40.003907 40 40h68.097657v1.597657zm0 0" fill="#e48e66"/><path d="m131.199219 1.300781h-91.199219c-22.09375-.007812-40.0078125 17.90625-40 40v318.699219c-.0078125 22.09375 17.90625 40.007812 40 40h91.101562v-398.699219zm0 0" fill="#d18162"/><g fill="#63316d"><path d="m162.199219 183h-88.097657c-5.523437 0-10-4.476562-10-10s4.476563-10 10-10h88.097657c5.523437 0 10 4.476562 10 10s-4.476563 10-10 10zm0 0"/><path d="m248.699219 258.699219h-174.597657c-5.523437 0-10-4.476563-10-10 0-5.523438 4.476563-10 10-10h174.597657c5.523437 0 10 4.476562 10 10 0 5.523437-4.476563 10-10 10zm0 0"/><path d="m248.699219 334.300781h-174.597657c-5.523437 0-10-4.476562-10-10 0-5.523437 4.476563-10 10-10h174.597657c5.523437 0 10 4.476563 10 10 0 5.523438-4.476563 10-10 10zm0 0"/></g></svg>