<?xml version="1.0" encoding="utf-8"?>
<!-- Generator: Adobe Illustrator 22.0.0, SVG Export Plug-In . SVG Version: 6.00 Build 0)  -->
<svg xmlns="http://www.w3.org/2000/svg" xmlns:xlink="http://www.w3.org/1999/xlink" version="1.1" id="Layer_2" x="0px" y="0px" viewBox="0 0 256 256" style="enable-background:new 0 0 256 256;" xml:space="preserve" width="512" height="512">
<style type="text/css">
	.st0{fill:#87796F;}
	.st1{fill:#3A312A;}
	.st2{fill:#D7E057;}
	.st3{fill:#F16C7A;}
	.st4{fill:#8AC6DD;}
	.st5{fill:#FCE8CB;}
	.st6{fill:#695B51;}
	.st7{fill:#D34E5C;}
	.st8{fill:#6CA8BF;}
	.st9{fill:#B9C239;}
	.st10{fill:#DECAAD;}
	.st11{fill:#B9BC39;}
	.st12{fill-rule:evenodd;clip-rule:evenodd;fill:#87796F;}
	.st13{fill-rule:evenodd;clip-rule:evenodd;fill:#FCE8CB;}
	.st14{fill-rule:evenodd;clip-rule:evenodd;fill:#F16C7A;}
	.st15{fill:#F5978A;}
</style>
<g>
	<g>
		<g>
			<path class="st2" d="M74.671,26.334c-0.974,11.564-13.025,13.39-13.025,13.39c10.346,0.487,12.925,14.059,12.925,14.059     c0.221-9.677,13.321-14.202,13.321-14.202C78.079,38.993,74.671,26.334,74.671,26.334z"/>
		</g>
	</g>
	<g>
		<g>
			<path class="st1" d="M87.982,38.083c-8.604-0.515-11.831-12.024-11.863-12.141c-0.191-0.703-0.862-1.167-1.583-1.102     c-0.725,0.066-1.298,0.642-1.359,1.367c-0.86,10.215-11.314,11.964-11.755,12.032c-0.763,0.116-1.313,0.791-1.273,1.561     c0.04,0.771,0.657,1.385,1.427,1.421c9.028,0.426,11.499,12.718,11.523,12.843c0.137,0.711,0.759,1.217,1.472,1.217     c0.042,0,0.084-0.002,0.126-0.005c0.764-0.064,1.357-0.693,1.375-1.46c0.195-8.509,12.192-12.777,12.313-12.819     c0.675-0.234,1.092-0.914,0.994-1.622C89.28,38.666,88.696,38.125,87.982,38.083z M74.417,48.429     c-1.356-3.13-3.709-6.907-7.587-8.876c2.931-1.405,6.409-3.914,8.202-8.273c1.551,3.071,4.199,6.88,8.334,8.723     C80.358,41.642,76.443,44.407,74.417,48.429z"/>
		</g>
	</g>
	<g>
		<g>
			<path class="st2" d="M52.972,43.314c-0.689,8.179-9.212,9.471-9.212,9.471c7.318,0.344,9.142,9.944,9.142,9.944     c0.156-6.845,9.422-10.046,9.422-10.046C55.383,52.269,52.972,43.314,52.972,43.314z"/>
		</g>
	</g>
	<g>
		<g>
			<path class="st1" d="M62.414,51.187c-5.766-0.345-7.972-8.186-7.994-8.265c-0.19-0.702-0.859-1.159-1.582-1.102     c-0.726,0.065-1.299,0.643-1.36,1.368c-0.579,6.871-7.646,8.066-7.942,8.113c-0.763,0.116-1.313,0.791-1.273,1.561     c0.04,0.771,0.657,1.385,1.427,1.421c6.036,0.284,7.724,8.645,7.74,8.727c0.135,0.713,0.759,1.22,1.473,1.22     c0.041,0,0.083-0.002,0.125-0.005c0.765-0.063,1.358-0.693,1.376-1.461c0.13-5.709,8.331-8.634,8.412-8.662     c0.677-0.234,1.094-0.913,0.996-1.622C63.713,51.771,63.128,51.229,62.414,51.187z M52.83,57.981     c-0.924-1.885-2.34-3.947-4.447-5.279c1.856-1.041,3.697-2.63,4.871-4.917c1.057,1.874,2.654,3.955,4.941,5.224     C56.344,54.109,54.206,55.749,52.83,57.981z"/>
		</g>
	</g>
	<g>
		<g>
			<path class="st2" d="M52.972,16.657c-0.689,8.179-9.212,9.47-9.212,9.47c7.318,0.345,9.142,9.944,9.142,9.944     c0.156-6.844,9.422-10.045,9.422-10.045C55.383,25.611,52.972,16.657,52.972,16.657z"/>
		</g>
	</g>
	<g>
		<g>
			<path class="st1" d="M62.414,24.529c-5.766-0.345-7.972-8.186-7.994-8.265c-0.19-0.702-0.85-1.167-1.582-1.102     c-0.726,0.065-1.299,0.643-1.36,1.368c-0.579,6.87-7.646,8.066-7.942,8.113c-0.763,0.116-1.314,0.791-1.273,1.561     c0.04,0.771,0.657,1.385,1.428,1.421c6.035,0.284,7.724,8.645,7.739,8.727c0.135,0.713,0.759,1.22,1.472,1.22     c0.042,0,0.083-0.002,0.125-0.005c0.765-0.063,1.358-0.693,1.376-1.461c0.13-5.709,8.331-8.634,8.412-8.662     c0.677-0.234,1.094-0.913,0.996-1.622C63.713,25.113,63.128,24.571,62.414,24.529z M52.83,31.324     c-0.924-1.886-2.34-3.947-4.447-5.28c1.856-1.041,3.697-2.629,4.87-4.916c1.057,1.874,2.655,3.955,4.941,5.224     C56.344,27.452,54.206,29.092,52.83,31.324z"/>
		</g>
	</g>
	<g>
		<g>
			<path class="st5" d="M204.7,153.208c-4.65-4.66-11.08-7.54-18.19-7.54H169.5v-11.05c-4.7,3.26-9.56,5.18-14.28,5.18     c-4.53,0-9.31-1.94-14-5.24h-0.28v11.11h-17.02c-3.11,0-6.09,0.55-8.85,1.56c-3.54,1.3-6.72,3.36-9.34,5.98     c-4.66,4.65-7.54,11.08-7.54,18.18v48.26l21.01,11.25v8.7h93.04v-68.21C212.24,164.289,209.36,157.858,204.7,153.208z"/>
		</g>
	</g>
	<g>
		<g>
			<path class="st1" d="M205.762,152.149c-5.136-5.146-11.973-7.981-19.252-7.981H171v-9.55c0-0.559-0.31-1.07-0.805-1.329     c-0.494-0.259-1.092-0.223-1.55,0.097c-4.699,3.26-9.215,4.913-13.425,4.913c-4.033,0-8.453-1.671-13.137-4.967     c-0.253-0.178-0.554-0.273-0.863-0.273h-0.28c-0.829,0-1.5,0.672-1.5,1.5v9.609h-15.52c-3.218,0-6.369,0.556-9.367,1.652     c-3.678,1.351-7.096,3.539-9.883,6.327c-5.147,5.135-7.981,11.968-7.981,19.241v48.26c0,0.553,0.304,1.062,0.792,1.322     l20.218,10.826v7.802c0,0.828,0.671,1.5,1.5,1.5h93.04c0.829,0,1.5-0.672,1.5-1.5v-68.21     C213.74,164.115,210.906,157.282,205.762,152.149z M210.74,238.099H120.7v-7.2c0-0.553-0.304-1.062-0.792-1.322L99.69,218.75     v-47.361c0-6.471,2.521-12.55,7.101-17.119c2.482-2.483,5.524-4.432,8.795-5.633c2.664-0.975,5.468-1.469,8.334-1.469h17.02     c0.829,0,1.5-0.672,1.5-1.5v-8.507c4.454,2.747,8.743,4.138,12.78,4.138c4.102,0,8.39-1.32,12.78-3.931v8.3     c0,0.828,0.671,1.5,1.5,1.5h17.01c6.477,0,12.559,2.521,17.13,7.103c4.578,4.568,7.1,10.647,7.1,17.118V238.099z"/>
		</g>
	</g>
	<g>
		<g>
			<path class="st4" d="M204.7,153.208c-4.64-4.67-11.08-7.55-18.19-7.55h-4.07l0.01,0.01l0.09,0.07l-17.68,23.45l-9.13-6.88     l-9.12,6.88l-17.68-23.45l0.09-0.07l0.01-0.01h-5.1c-3.11,0-6.1,0.55-8.86,1.57c-3.55,1.3-6.73,3.35-9.34,5.98     c-4.66,4.65-7.54,11.08-7.54,18.18v48.26l21.01,11.25v8.7h93.04v-68.21C212.24,164.289,209.36,157.858,204.7,153.208z"/>
		</g>
	</g>
	<g>
		<g>
			<path class="st1" d="M205.764,152.151c-5.121-5.154-11.958-7.993-19.254-7.993h-4.07c-0.613,0-1.16,0.378-1.388,0.948     c-0.026,0.064-0.047,0.131-0.063,0.197l-16.424,21.784l-7.932-5.978c-0.535-0.402-1.272-0.403-1.806,0.001l-7.922,5.976     l-16.413-21.771c-0.017-0.072-0.04-0.145-0.068-0.215c-0.228-0.57-0.779-0.943-1.393-0.943h-5.1c-3.236,0-6.392,0.56-9.375,1.662     c-3.705,1.356-7.125,3.546-9.884,6.327c-5.147,5.135-7.981,11.968-7.981,19.241v48.26c0,0.553,0.304,1.062,0.792,1.322     l20.218,10.826v7.802c0,0.828,0.671,1.5,1.5,1.5h93.04c0.829,0,1.5-0.672,1.5-1.5v-68.21     C213.74,164.115,210.906,157.282,205.764,152.151z M210.74,238.099H120.7v-7.2c0-0.553-0.304-1.062-0.792-1.322L99.69,218.75     v-47.361c0-6.471,2.521-12.55,7.105-17.123c2.492-2.512,5.449-4.405,8.795-5.63c2.653-0.98,5.46-1.478,8.34-1.478h4.192     l17.29,22.934c0.24,0.317,0.596,0.527,0.99,0.582c0.392,0.056,0.794-0.049,1.111-0.288l8.217-6.198l8.227,6.199     c0.661,0.497,1.602,0.365,2.101-0.295l17.29-22.934h3.162c6.49,0,12.572,2.524,17.13,7.112c4.578,4.568,7.1,10.647,7.1,17.118     V238.099z"/>
		</g>
	</g>
	<g>
		<g>
			<rect x="119.2" y="187.398" class="st2" width="73.25" height="52.198"/>
		</g>
	</g>
	<g>
		<g>
			<path class="st1" d="M192.45,185.898h-24.523c-0.829,0-1.5,0.672-1.5,1.5s0.671,1.5,1.5,1.5h23.023v49.198H120.7v-49.198h31.107     c0.829,0,1.5-0.672,1.5-1.5s-0.671-1.5-1.5-1.5H119.2c-0.829,0-1.5,0.672-1.5,1.5v52.198c0,0.828,0.671,1.5,1.5,1.5h73.25     c0.829,0,1.5-0.672,1.5-1.5v-52.198C193.95,186.57,193.279,185.898,192.45,185.898z"/>
		</g>
	</g>
	<g>
		<g>
			<path class="st2" d="M124.075,141.898c-2.692,0-4.875,2.183-4.875,4.875v40.625h9.75v-40.625     C128.95,144.081,126.768,141.898,124.075,141.898z"/>
		</g>
	</g>
	<g>
		<g>
			<path class="st1" d="M124.075,140.398c-3.515,0-6.375,2.859-6.375,6.375v40.625c0,0.828,0.671,1.5,1.5,1.5h9.75     c0.829,0,1.5-0.672,1.5-1.5v-40.625C130.45,143.258,127.59,140.398,124.075,140.398z M127.45,185.898h-6.75v-39.125     c0-1.861,1.514-3.375,3.375-3.375s3.375,1.514,3.375,3.375V185.898z"/>
		</g>
	</g>
	<g>
		<g>
			<path class="st2" d="M187.367,141.898L187.367,141.898c-2.692,0-4.875,2.183-4.875,4.875v40.625h9.75v-40.625     C192.242,144.081,190.06,141.898,187.367,141.898z"/>
		</g>
	</g>
	<g>
		<g>
			<path class="st1" d="M187.367,140.398c-3.515,0-6.375,2.859-6.375,6.375v40.625c0,0.828,0.671,1.5,1.5,1.5h9.75     c0.829,0,1.5-0.672,1.5-1.5v-40.625C193.742,143.258,190.882,140.398,187.367,140.398z M190.742,185.898h-6.75v-39.125     c0-1.861,1.514-3.375,3.375-3.375c1.861,0,3.375,1.514,3.375,3.375V185.898z"/>
		</g>
	</g>
	<g>
		<g>
			<path class="st13" d="M111.03,71.75c-5.592,0-10.125,4.533-10.125,10.125S105.438,92,111.03,92     c5.592,0,10.125-4.533,10.125-10.125S116.622,71.75,111.03,71.75z"/>
		</g>
	</g>
	<g>
		<g>
			<path class="st1" d="M111.03,70.25c-6.41,0-11.625,5.215-11.625,11.625S104.62,93.5,111.03,93.5     c6.41,0,11.625-5.215,11.625-11.625S117.44,70.25,111.03,70.25z M111.03,90.5c-4.756,0-8.625-3.869-8.625-8.625     s3.869-8.625,8.625-8.625c4.756,0,8.625,3.869,8.625,8.625S115.786,90.5,111.03,90.5z"/>
		</g>
	</g>
	<g>
		<g>
			<path class="st13" d="M199.405,71.75c-5.592,0-10.125,4.533-10.125,10.125S193.813,92,199.405,92     c5.592,0,10.125-4.533,10.125-10.125S204.997,71.75,199.405,71.75z"/>
		</g>
	</g>
	<g>
		<g>
			<path class="st1" d="M199.405,70.25c-6.41,0-11.625,5.215-11.625,11.625S192.995,93.5,199.405,93.5     c6.41,0,11.625-5.215,11.625-11.625S205.815,70.25,199.405,70.25z M199.405,90.5c-4.756,0-8.625-3.869-8.625-8.625     s3.869-8.625,8.625-8.625c4.756,0,8.625,3.869,8.625,8.625S204.161,90.5,199.405,90.5z"/>
		</g>
	</g>
	<g>
		<g>
			<path class="st5" d="M155.217,32.074c-24.79,0-44.886,20.096-44.886,44.886s24.83,62.84,44.886,62.84     c21.011,0,44.886-38.05,44.886-62.84S180.007,32.074,155.217,32.074z"/>
		</g>
	</g>
	<g>
		<g>
			<path class="st1" d="M155.217,30.574c-25.577,0-46.386,20.809-46.386,46.386c0,12.083,5.82,28.012,15.188,41.569     c9.853,14.258,21.516,22.771,31.198,22.771c10.192,0,21.696-8.303,31.562-22.779c9.144-13.416,14.824-29.341,14.824-41.561     C201.603,51.383,180.794,30.574,155.217,30.574z M184.3,116.831c-9.162,13.443-20.034,21.469-29.083,21.469     c-8.697,0-19.437-8.028-28.729-21.477c-9.041-13.082-14.656-28.357-14.656-39.863c0-23.923,19.463-43.386,43.386-43.386     c23.923,0,43.386,19.463,43.386,43.386C198.603,88.608,193.123,103.887,184.3,116.831z"/>
		</g>
	</g>
	<g>
		<g>
			<path class="st1" d="M139.37,72.072c-2.419,0-4.381,1.961-4.381,4.381c0,2.42,1.961,4.381,4.381,4.381     c2.42,0,4.381-1.961,4.381-4.381C143.751,74.034,141.79,72.072,139.37,72.072z"/>
		</g>
	</g>
	<g>
		<g>
			<path class="st1" d="M171.064,72.072c-2.42,0-4.381,1.961-4.381,4.381c0,2.42,1.961,4.381,4.381,4.381     c2.42,0,4.381-1.961,4.381-4.381C175.445,74.034,173.484,72.072,171.064,72.072z"/>
		</g>
	</g>
	<g>
		<g>
			<path class="st15" d="M130.614,83.836c-4.168,0-7.547,2.526-7.547,5.642s3.379,5.642,7.547,5.642     c4.168,0,7.547-2.526,7.547-5.642S134.782,83.836,130.614,83.836z"/>
		</g>
	</g>
	<g>
		<g>
			<path class="st15" d="M179.82,83.836c-4.168,0-7.547,2.526-7.547,5.642s3.379,5.642,7.547,5.642s7.547-2.526,7.547-5.642     S183.988,83.836,179.82,83.836z"/>
		</g>
	</g>
	<g>
		<g>
			<path class="st0" d="M202.194,66.585c0-24.531-20.8-44.417-46.459-44.417c-25.658,0-46.458,19.886-46.458,44.418     c0,2.595,0.469,4.531,1.343,6.948c0.411,1.14,7.064-2.5,7.63-2.898c2.833-1.994,5.148-4.697,6.878-7.686     c0.715-1.242,1.312-2.507,1.792-3.772c1.531-4.035,5.692-15.262,9.917-14.381c5.665,1.181,12.087,1.848,18.899,1.848     c6.812,0,13.233-0.667,18.899-1.848c4.225-0.881,8.386,10.346,9.917,14.381c0.48,1.265,1.077,2.529,1.792,3.772     c2.858,4.943,7.685,9.65,13.558,10.506c0.015-0.284,0.373-0.38,0.64-0.478C202.463,72.28,202.194,68.126,202.194,66.585z"/>
		</g>
	</g>
	<g>
		<g>
			<path class="st1" d="M203.699,67.083l-0.005-0.498c0-25.318-21.514-45.917-47.959-45.917c-26.444,0-47.958,20.599-47.958,45.918     c0.001,2.91,0.548,5.011,1.432,7.457c0.191,0.529,0.62,0.933,1.175,1.107c0.178,0.057,0.384,0.082,0.613,0.082     c2.596,0,8.063-3.334,8.116-3.371c2.857-2.011,5.386-4.833,7.315-8.164c0.742-1.29,1.38-2.632,1.894-3.987l0.097-0.255     c4.717-12.446,7.241-13.375,8.112-13.19c5.987,1.247,12.448,1.88,19.205,1.88c6.757,0,13.218-0.633,19.205-1.88     c0.865-0.193,3.396,0.745,8.113,13.194l0.095,0.251c0.514,1.354,1.151,2.695,1.896,3.99c3.6,6.227,9.072,10.428,14.64,11.239     c0.419,0.062,0.841-0.057,1.168-0.325c0.087-0.07,0.164-0.15,0.232-0.237C203.791,73.362,203.731,69.279,203.699,67.083z      M199.967,71.591c-0.208,0.073-0.397,0.157-0.565,0.253c-4.425-0.931-8.777-4.483-11.759-9.643     c-0.665-1.154-1.233-2.351-1.691-3.556l-0.094-0.249c-3.187-8.411-6.788-16.052-11.531-15.069     c-5.786,1.206-12.041,1.817-18.593,1.817c-6.551,0-12.807-0.611-18.592-1.817c-4.744-0.979-8.343,6.657-11.529,15.064     l-0.096,0.254c-0.458,1.207-1.026,2.403-1.688,3.552c-1.711,2.955-3.939,5.448-6.438,7.207c-0.738,0.497-4.095,2.224-5.676,2.717     c-0.6-1.803-0.939-3.4-0.939-5.535c0-23.665,20.168-42.918,44.958-42.918c24.791,0,44.959,19.253,44.959,42.917l0.005,0.541     C200.756,71.001,200.2,71.507,199.967,71.591z"/>
		</g>
	</g>
	<g>
		<g>
			
				<rect x="136.614" y="139.319" transform="matrix(0.7986 -0.6018 0.6018 0.7986 -64.0198 116.6887)" class="st0" width="11.475" height="29.373"/>
		</g>
	</g>
	<g>
		<g>
			<path class="st1" d="M156.97,161.379l-17.678-23.457c-0.498-0.662-1.438-0.792-2.101-0.296l-9.164,6.905     c-0.317,0.239-0.527,0.596-0.583,0.989c-0.056,0.395,0.048,0.794,0.288,1.111l17.679,23.458c0.239,0.318,0.595,0.527,0.989,0.583     c0.069,0.01,0.139,0.015,0.208,0.015c0.324,0,0.641-0.104,0.903-0.302l9.164-6.906C157.337,162.98,157.469,162.04,156.97,161.379     z M146.904,167.087l-15.873-21.062l6.768-5.1l15.873,21.062L146.904,167.087z"/>
		</g>
	</g>
	<g>
		<g>
			
				<rect x="154.432" y="148.268" transform="matrix(0.6019 -0.7986 0.7986 0.6019 -55.6559 196.375)" class="st0" width="29.373" height="11.475"/>
		</g>
	</g>
	<g>
		<g>
			<path class="st1" d="M184.025,145.521c-0.055-0.394-0.265-0.75-0.583-0.989l-9.164-6.905c-0.661-0.496-1.603-0.366-2.101,0.296     L154.5,161.379c-0.499,0.661-0.367,1.602,0.295,2.101l9.164,6.906c0.262,0.197,0.579,0.302,0.903,0.302     c0.069,0,0.139-0.005,0.208-0.015c0.394-0.056,0.75-0.265,0.989-0.583l17.679-23.458     C183.977,146.314,184.081,145.915,184.025,145.521z M164.566,167.087l-6.768-5.101l15.873-21.062l6.768,5.1L164.566,167.087z"/>
		</g>
	</g>
	<g>
		<g>
			<path class="st1" d="M168.144,104.244c-0.777-0.294-1.641,0.102-1.931,0.878c-0.874,2.334-4.296,6.746-10.998,6.746     c-5.236,0-8.85-2.245-11.048-6.864c-0.357-0.748-1.251-1.062-1.999-0.71c-0.748,0.356-1.066,1.251-0.71,1.999     c2.708,5.69,7.337,8.575,13.757,8.575c7.25,0,12.239-4.507,13.807-8.693C169.313,105.398,168.92,104.534,168.144,104.244z"/>
		</g>
	</g>
	<g>
		<g>
			<path class="st3" d="M155.216,16.401c-13.53,0-24.873,3.783-33.199,10.008l-9.849,10.571c-3.568,5.67-5.531,12.186-5.608,19.125     h97.312C203.628,34.145,184.542,16.401,155.216,16.401z"/>
		</g>
	</g>
	<g>
		<g>
			<path class="st1" d="M155.216,14.901c-13.288,0-25.079,3.563-34.097,10.307c-0.664,0.496-0.799,1.436-0.303,2.1     c0.496,0.663,1.436,0.797,2.099,0.303c8.496-6.352,19.666-9.709,32.301-9.709c26.457,0,45.997,15.343,47.108,36.704h-94.216     c0.322-5.988,2.151-11.776,5.329-16.826c0.441-0.701,0.231-1.627-0.471-2.068c-0.7-0.44-1.627-0.23-2.068,0.471     c-3.741,5.944-5.76,12.828-5.839,19.907c-0.004,0.4,0.152,0.786,0.434,1.071c0.282,0.285,0.666,0.445,1.066,0.445h97.312     c0.401,0,0.785-0.16,1.066-0.445c0.282-0.285,0.438-0.671,0.434-1.071C205.107,32.224,184.014,14.901,155.216,14.901z"/>
		</g>
	</g>
	<g>
		<g>
			<ellipse class="st3" cx="155.216" cy="56.106" rx="48.656" ry="10.065"/>
		</g>
	</g>
	<g>
		<g>
			<path class="st1" d="M155.216,44.54c-20.161,0-50.156,3.08-50.156,11.565s29.995,11.565,50.156,11.565     c20.161,0,50.156-3.08,50.156-11.565S175.377,44.54,155.216,44.54z M155.216,64.671c-30.96,0-47.156-5.576-47.156-8.565     s16.196-8.565,47.156-8.565c30.961,0,47.156,5.576,47.156,8.565S186.176,64.671,155.216,64.671z"/>
		</g>
	</g>
	<g>
		<g>
			<path class="st4" d="M155.216,24.365c-4.616,0-8.357,3.742-8.357,8.357s3.742,8.357,8.357,8.357c4.616,0,8.357-3.742,8.357-8.357     S159.831,24.365,155.216,24.365z"/>
		</g>
	</g>
	<g>
		<g>
			<path class="st1" d="M155.216,22.864c-5.435,0-9.857,4.422-9.857,9.857s4.422,9.857,9.857,9.857c5.436,0,9.857-4.422,9.857-9.857     S160.651,22.864,155.216,22.864z M155.216,39.579c-3.781,0-6.857-3.076-6.857-6.857s3.076-6.857,6.857-6.857     c3.781,0,6.857,3.076,6.857,6.857S158.997,39.579,155.216,39.579z"/>
		</g>
	</g>
	<g>
		<g>
			<path class="st7" d="M155.22,17.898c-2.58,0-5.1,0.14-7.55,0.42c19.44,2.23,34.03,13.19,38.36,28.5c6.76,1.13,12.56,2.7,16,4.8     C199.34,31.828,180.42,17.898,155.22,17.898z"/>
		</g>
	</g>
	<g>
		<g>
			<path class="st7" d="M155.22,47.539c-2.6,0-5.1,0.04-7.5,0.12c26.07,0.8,39.65,5.71,39.65,8.45c0,2.74-13.58,7.64-39.65,8.44     c2.4,0.08,4.9,0.12,7.5,0.12c30.96,0,47.15-5.57,47.15-8.56C202.37,53.118,186.18,47.539,155.22,47.539z"/>
		</g>
	</g>
	<g>
		<g>
			<path class="st4" d="M117.39,222.798l-29.52-44.69l-0.39-0.6l-1.778-2.695l-15.487,15.784l2.055,3.111l27.08,41     c2.08,3.15,5.52,4.86,9.03,4.86c2.05,0,4.12-0.58,5.95-1.79C119.31,234.488,120.68,227.778,117.39,222.798z"/>
		</g>
	</g>
	<g>
		<g>
			<path class="st1" d="M118.642,221.972l-31.688-47.984c-0.25-0.378-0.657-0.623-1.108-0.667c-0.448-0.043-0.898,0.119-1.215,0.442     l-15.487,15.784c-0.495,0.505-0.571,1.287-0.181,1.878l29.135,44.111c2.288,3.464,6.131,5.532,10.281,5.532     c2.417,0,4.76-0.705,6.777-2.039c2.743-1.812,4.616-4.584,5.274-7.807C121.089,228,120.454,224.715,118.642,221.972z      M117.492,230.622c-0.498,2.438-1.915,4.534-3.988,5.904c-0.001,0.001-0.001,0.001-0.001,0.001     c-1.525,1.008-3.297,1.541-5.123,1.541c-3.139,0-6.047-1.564-7.778-4.187l-28.467-43.1l13.337-13.593l30.667,46.437     C117.509,225.7,117.99,228.185,117.492,230.622z"/>
		</g>
	</g>
	<g>
		<g>
			<path class="st3" d="M98.513,190.584c-0.169-0.105-0.339-0.21-0.506-0.326c-0.169-0.105-0.324-0.231-0.492-0.347     c-1.268-0.955-2.388-2.142-3.3-3.575c-0.169-0.266-0.325-0.542-0.47-0.816c-0.058-0.078-0.103-0.165-0.137-0.25     c-0.145-0.275-0.267-0.545-0.389-0.817c-0.01-0.013-0.019-0.026-0.018-0.037c-0.111-0.27-0.222-0.539-0.32-0.818     c-0.026-0.062-0.05-0.134-0.063-0.205c-0.082-0.231-0.151-0.471-0.211-0.699c-0.034-0.085-0.056-0.169-0.079-0.253     l-18.829,14.093l-9.428,7.056c1.764,1.037,3.327,2.507,4.52,4.384c0.77,1.217,1.33,2.531,1.675,3.894l7.736-5.79l4.845-3.636     l15.302-11.442l0.375-0.281C98.65,190.673,98.587,190.629,98.513,190.584z"/>
		</g>
	</g>
	<g>
		<g>
			<path class="st1" d="M99.435,189.392l-0.134-0.084c-0.147-0.091-0.294-0.182-0.501-0.323c-0.071-0.045-0.138-0.096-0.206-0.146     l-0.177-0.127c-1.162-0.875-2.15-1.945-2.935-3.179c-0.148-0.233-0.284-0.476-0.411-0.716c-0.025-0.048-0.054-0.095-0.084-0.141     c-0.016-0.037-0.033-0.073-0.052-0.109c-0.13-0.245-0.239-0.487-0.348-0.73c-0.004-0.01-0.009-0.02-0.014-0.029     c-0.091-0.221-0.183-0.444-0.291-0.74c-0.013-0.06-0.03-0.118-0.05-0.176c-0.067-0.191-0.124-0.39-0.173-0.578     c-0.011-0.04-0.04-0.125-0.053-0.164l-0.027-0.098c-0.129-0.48-0.488-0.866-0.958-1.029c-0.47-0.162-0.991-0.082-1.39,0.216     l-28.257,21.148c-0.402,0.301-0.627,0.783-0.599,1.284c0.027,0.501,0.304,0.955,0.737,1.21c1.631,0.96,2.982,2.271,4.014,3.894     c0.677,1.071,1.178,2.235,1.489,3.461c0.124,0.485,0.481,0.878,0.954,1.045c0.163,0.058,0.331,0.086,0.5,0.086     c0.319,0,0.636-0.103,0.899-0.299l28.256-21.148c0.399-0.298,0.591-0.798,0.567-1.296     C100.165,190.125,99.861,189.65,99.435,189.392z M71.23,209.422c-0.325-0.78-0.716-1.533-1.172-2.254     c-0.889-1.398-1.968-2.612-3.223-3.625l24.935-18.662c0.015,0.035,0.029,0.071,0.044,0.106h0.002     c0.013,0.031,0.026,0.062,0.04,0.093c0.124,0.275,0.249,0.549,0.393,0.826c0.061,0.14,0.132,0.272,0.213,0.396     c0.151,0.281,0.313,0.563,0.487,0.839c0.87,1.368,1.939,2.574,3.218,3.616L71.23,209.422z"/>
		</g>
	</g>
	<g>
		<g>
			<path class="st3" d="M68.787,207.969c-4.271-6.702-13.243-8.254-19.487-3.581c-4.452,3.333-6.26,8.884-5.039,13.967l10.236-7.661     c0.883-0.661,2.134-0.481,2.795,0.402l4.001,5.346c0.661,0.883,0.481,2.134-0.402,2.795l-10.236,7.661     c4.885,2.807,11.282,2.393,15.832-1.73C71.313,220.795,72.288,213.462,68.787,207.969z"/>
		</g>
	</g>
	<g>
		<g>
			<path class="st1" d="M70.053,207.164c-2.279-3.577-5.821-5.964-9.972-6.722c-4.091-0.745-8.35,0.254-11.679,2.745     c-4.802,3.594-7,9.686-5.599,15.519c0.118,0.49,0.475,0.889,0.949,1.061c0.475,0.17,1.004,0.091,1.408-0.21l10.235-7.661     c0.218-0.164,0.53-0.119,0.696,0.1l4,5.346c0.107,0.144,0.106,0.293,0.094,0.369c-0.011,0.076-0.05,0.22-0.194,0.326     l-10.236,7.661c-0.404,0.303-0.629,0.788-0.598,1.292c0.03,0.504,0.312,0.958,0.75,1.21c2.336,1.342,4.911,2,7.471,1.999     c3.646,0,7.262-1.332,10.116-3.918C72.821,221.452,73.921,213.234,70.053,207.164z M65.48,224.058     c-3.286,2.977-7.833,3.882-11.895,2.521l8.205-6.141c0.748-0.56,1.233-1.377,1.366-2.302c0.133-0.925-0.103-1.846-0.662-2.593     l-4-5.346c-1.155-1.544-3.35-1.858-4.895-0.705l-8.204,6.141c-0.142-3.885,1.612-7.654,4.805-10.044     c2.663-1.993,6.07-2.795,9.342-2.196c3.321,0.606,6.155,2.518,7.98,5.382C70.616,213.629,69.737,220.199,65.48,224.058z"/>
		</g>
	</g>
	<g>
		<g>
			<path class="st3" d="M118.735,175.943l-10.23,7.666c-0.889,0.656-2.143,0.475-2.8-0.403l-4.002-5.347     c-0.656-0.89-0.475-2.143,0.403-2.8l10.24-7.654c-4.885-2.812-11.283-2.396-15.828,1.721c-2.57,2.327-4.051,5.49-4.338,8.768     c-0.137,1.513-0.024,3.051,0.349,4.544c0.023,0.084,0.045,0.168,0.079,0.253c0.059,0.228,0.128,0.468,0.211,0.699     c0.013,0.071,0.037,0.143,0.063,0.205c0.098,0.279,0.209,0.549,0.32,0.818c-0.002,0.011,0.008,0.024,0.018,0.037     c0.122,0.271,0.245,0.542,0.389,0.817c0.034,0.085,0.079,0.173,0.137,0.25c0.145,0.274,0.301,0.55,0.47,0.816     c0.912,1.434,2.032,2.62,3.3,3.575c0.168,0.116,0.322,0.242,0.492,0.347c0.168,0.116,0.337,0.221,0.506,0.326     c4.582,2.837,10.61,2.749,15.182-0.673C118.15,186.576,119.963,181.029,118.735,175.943z"/>
		</g>
	</g>
	<g>
		<g>
			<path class="st1" d="M120.193,175.592c-0.118-0.491-0.476-0.889-0.95-1.06c-0.475-0.172-1.003-0.092-1.407,0.211l-10.22,7.658     c-0.227,0.167-0.545,0.125-0.709-0.093l-3.995-5.338c-0.167-0.228-0.125-0.546,0.093-0.71l10.24-7.653     c0.404-0.302,0.629-0.787,0.6-1.291c-0.03-0.504-0.312-0.958-0.75-1.21c-5.66-3.258-12.726-2.489-17.582,1.909     c-2.782,2.518-4.496,5.98-4.826,9.744c-0.154,1.7-0.024,3.396,0.393,5.067c0.028,0.105,0.058,0.21,0.095,0.316     c0.058,0.216,0.123,0.439,0.197,0.657c0.029,0.121,0.065,0.23,0.094,0.293c0.107,0.305,0.228,0.6,0.349,0.894h0.002     c0.012,0.031,0.026,0.062,0.04,0.093c0.124,0.274,0.249,0.549,0.393,0.826c0.061,0.14,0.132,0.272,0.213,0.396     c0.151,0.281,0.313,0.563,0.487,0.839c0.98,1.541,2.212,2.876,3.712,4.003l0.153,0.11c0.131,0.098,0.262,0.191,0.337,0.236     c0.19,0.132,0.381,0.252,0.571,0.369c2.441,1.512,5.171,2.261,7.893,2.261c3.159,0,6.306-1.01,8.977-3.008     c0.001,0,0.001,0,0.001,0C119.402,187.513,121.601,181.42,120.193,175.592z M112.796,188.71L112.796,188.71     c-3.977,2.977-9.273,3.21-13.495,0.598c-0.147-0.091-0.294-0.182-0.501-0.323c-0.071-0.045-0.138-0.096-0.206-0.146l-0.177-0.127     c-1.162-0.875-2.15-1.945-2.935-3.179c-0.148-0.233-0.284-0.476-0.411-0.716c-0.025-0.048-0.054-0.095-0.084-0.141     c-0.016-0.037-0.033-0.073-0.052-0.109c-0.13-0.245-0.239-0.487-0.348-0.73c-0.004-0.01-0.009-0.02-0.014-0.029     c-0.091-0.221-0.183-0.445-0.291-0.74c-0.013-0.06-0.03-0.118-0.05-0.176c-0.067-0.191-0.124-0.39-0.173-0.578     c-0.011-0.04-0.04-0.125-0.053-0.164l-0.021-0.073c-0.329-1.32-0.434-2.681-0.31-4.05c0.264-3.013,1.631-5.778,3.851-7.787     c3.285-2.976,7.83-3.88,11.891-2.516l-8.208,6.135c-1.535,1.148-1.854,3.343-0.705,4.9l4.001,5.348     c1.147,1.532,3.342,1.853,4.9,0.703l8.2-6.145C117.748,182.547,115.994,186.316,112.796,188.71z"/>
		</g>
	</g>
	<g>
		<g>
			<path class="st5" d="M88.201,174.625c-4.687-7.027-10.363-5.207-16.245-1.284c-5.882,3.924-9.743,8.465-5.056,15.492     c4.687,7.027,13.255,9.542,19.137,5.619C91.919,190.528,92.888,181.651,88.201,174.625z"/>
		</g>
	</g>
	<g>
		<g>
			<path class="st1" d="M89.449,173.793c-2.454-3.679-5.466-5.518-8.959-5.416c-2.688,0.065-5.664,1.246-9.367,3.716     c-5.108,3.407-11.232,8.936-5.472,17.572c3.472,5.205,8.942,8.129,14.149,8.128c2.5,0,4.94-0.674,7.068-2.093     c3.221-2.148,5.247-5.642,5.705-9.835C93.021,181.771,91.911,177.483,89.449,173.793z M89.591,185.539     c-0.36,3.296-1.918,6.019-4.387,7.665c-5.187,3.456-12.838,1.122-17.057-5.203c-3.427-5.139-2.126-8.898,4.641-13.412     c3.21-2.141,5.68-3.162,7.775-3.213c0.055-0.002,0.109-0.002,0.163-0.002c2.389,0,4.372,1.302,6.227,4.083     C89.025,178.563,89.962,182.144,89.591,185.539z"/>
		</g>
	</g>
</g>
</svg>
